<svg id="flat" height="512" viewBox="0 0 512 512" width="512" 
    xmlns="http://www.w3.org/2000/svg">
    <path d="m256 168a160 160 0 1 0 160 160 160 160 0 0 0 -160-160zm0 280a120 120 0 1 1 120-120 120 120 0 0 1 -120 120z" fill="#ffc431"/>
    <path d="m290.107 114.107 29.893 29.893v32l-40 40h-48l-40-40v-32l29.893-29.893z" fill="#ffd873"/>
    <path d="m112 80a32 32 0 0 0 -32-32 32 32 0 0 0 32-32 32 32 0 0 0 32 32 32 32 0 0 0 -32 32z" fill="#ffc431"/>
    <path d="m384 144a32 32 0 0 0 -32-32 32 32 0 0 0 32-32 32 32 0 0 0 32 32 32 32 0 0 0 -32 32z" fill="#ffc431"/>
    <path d="m344 64-88 104-88-104 40-40h96z" fill="#fb6a83"/>
    <path d="m296 64-24-40h32l40 40z" fill="#f75b74"/>
    <path d="m216 64 24-40h-32l-40 40z" fill="#ffa3b9"/>
    <path d="m256 168 40-104h-80z" fill="#f75b74"/>
    <path d="m296 64-40 104 88-104z" fill="#f24962"/>
</svg>